<svg width="512" height="512" viewBox="0 0 512 512" xmlns="http://www.w3.org/2000/svg">
  <path d="M155 48
       C105 58 70 103 64 161
       C58 218 89 264 105 318
       C119 365 121 436 152 457
       C176 473 194 448 204 410
       C217 360 232 330 256 330
       C280 330 295 360 308 410
       C318 448 336 473 360 457
       C391 436 393 365 407 318
       C423 264 454 218 448 161
       C442 103 407 58 357 48
       C320 41 292 62 272 74
       C262 80 250 80 240 74
       C220 62 192 41 155 48Z" fill="#ffffff" stroke="#15375f" stroke-width="34" stroke-linecap="round" stroke-linejoin="round"></path>
</svg>